<svg width="1440" height="1024" viewBox="0 0 1440 1024" fill="none" xmlns="http://www.w3.org/2000/svg">
<path d="M1440 0H-2V296H1440V0Z" fill="#F37E84"/>
<path d="M134.02 726.72C287.014 726.72 411.04 602.694 411.04 449.7C411.04 296.706 287.014 172.68 134.02 172.68C-18.9739 172.68 -143 296.706 -143 449.7C-143 602.694 -18.9739 726.72 134.02 726.72Z" fill="#F6966E"/>
<path d="M1440 230H-2V526H1440V230Z" fill="#F6966E"/>
<path d="M134.02 587.24C204.458 587.24 261.56 530.138 261.56 459.7C261.56 389.262 204.458 332.16 134.02 332.16C63.5816 332.16 6.47998 389.262 6.47998 459.7C6.47998 530.138 63.5816 587.24 134.02 587.24Z" fill="#FED555"/>
<path d="M1440 390H-2V686H1440V390Z" fill="#FED555"/>
<path d="M134.02 549.4C178.037 549.4 213.72 513.717 213.72 469.7C213.72 425.683 178.037 390 134.02 390C90.0029 390 54.32 425.683 54.32 469.7C54.32 513.717 90.0029 549.4 134.02 549.4Z" fill="#F8F16F"/>
<path d="M1440 470H-2V766H1440V470Z" fill="#F8F16F"/>
<path d="M1440 510H-2V1024H1440V510Z" fill="#173657"/>
<path d="M481.959 846.249L628.661 836.549L856.551 760.17L793.15 748.902L459.103 795.207L124.036 739.713L140.1 803.079L481.959 846.249Z" fill="#89AFE0"/>
<path d="M1484.93 757.32L1254.77 711.609L821.704 659L861.953 700.33L1271.68 751.063L1339.35 765.133L1018.45 770.737L759.893 876.976L1465.2 871.301L1463.95 762.96L1484.93 757.32Z" fill="#89AFE0"/>
<path d="M759.893 876.976L742.796 966.19L1280.13 987.787L1529.07 929.55L1465.2 833.105L1282.02 872.773L759.893 876.976Z" fill="#6190C9"/>
<path d="M759.893 876.976L631.95 929.55V1006.58L742.796 966.19L759.893 876.976Z" fill="#3A5A85"/>
<path d="M1389.73 757.32L861.953 700.33L841.746 759.208L856.551 760.17L628.661 836.549L481.959 846.249V920.158L489.783 1014.71L631.95 1006.58V929.55L1018.45 770.737H1282.67L1389.73 757.32Z" fill="#6190C9"/>
<path d="M475.975 1087.48L471.629 1014.71L631.95 1006.58L742.796 966.19L1280.13 987.787L1461.27 921.797L1540.35 1079.85L475.975 1087.48Z" fill="#89AFE0"/>
<path d="M1282.02 872.773L1280.13 987.787L1465.2 920.372V833.105L1282.02 872.773Z" fill="#3A5A85"/>
<path d="M787.652 752.239L841.746 759.208L861.953 700.33L821.704 659L787.652 752.239Z" fill="#B2CAEE"/>
<path d="M1390.19 947.692L1475.56 848.742L1597.03 996.49L1481.79 1069.77L1390.19 947.692Z" fill="#B2CAEE"/>
<path d="M481.959 846.249V920.206C481.959 920.206 104.528 873.046 104.528 871.23C104.528 869.413 140.147 803.126 140.147 803.126L481.959 846.249Z" fill="#6190C9"/>
<path d="M104.528 871.182L481.959 920.158L420.504 1113.49H-220.031L-0.155624 813.384L104.528 871.182Z" fill="#89AFE0"/>
<path d="M481.959 920.158L489.783 1014.71L471.629 1140.77L420.504 1113.49L481.959 920.158Z" fill="#3A5A85"/>
<path d="M124.036 739.713L59.4587 846.249L104.529 871.182L140.1 803.079L124.036 739.713Z" fill="#B2CAEE"/>
<path d="M459.103 795.207L637.103 770.535L641.496 732.743L489.783 747.905L459.103 795.207Z" fill="#6190C9"/>
<path d="M364.606 779.558L459.103 795.207L489.783 747.905L404.844 736.59L364.606 779.558Z" fill="#B2CAEE"/>
<path d="M641.496 732.743L506.298 697.789L404.844 736.59L489.783 747.905L641.496 732.743Z" fill="#89AFE0"/>
<path d="M1323.92 732.701C1319.31 720.661 1316.55 707.99 1315.74 695.121C1315.31 687.051 1309.09 674.371 1293.21 652.711C1279.55 634.081 1293.64 613.161 1279.58 601.771C1213.37 548.091 1217.46 534.091 1129.33 497.091C1126.18 494.381 1104.65 485.761 1083.66 463.741C1064.66 442.741 1054.89 421.121 1018.75 423.481C1017.12 423.589 1015.51 423.102 1014.21 422.11C1012.92 421.119 1012.03 419.691 1011.7 418.091C1010.7 412.981 1012.11 407.341 999.122 408.161C994.53 408.476 989.944 407.473 985.902 405.271C980.212 402.141 975.062 398.931 968.902 397.381C967.432 397.011 965.992 396.501 964.552 396.011C948.362 390.401 932.292 410.381 919.002 401.151C917.696 400.221 916.227 399.543 914.672 399.151C913.456 398.785 912.154 398.824 910.962 399.261C909.042 400.001 906.902 402.481 906.312 406.481C904.082 421.621 914.562 420.601 913.662 431.541C912.342 447.541 919.042 457.281 923.232 466.331C930.232 481.561 928.782 490.001 942.772 498.781C949.442 502.971 949.772 509.191 956.252 529.591C966.362 561.511 965.012 563.431 960.102 591.201C949.282 619.481 937.562 666.621 917.632 684.301C902.582 697.661 945.532 701.241 968.232 701.841C989.862 702.411 1003.01 671.841 1007.5 660.101C1010.05 653.481 1013.11 645.401 1019.44 624.831C1015.22 688.131 993.762 688.471 998.602 699.471C1002.97 709.401 1027.34 710.891 1044.35 711.811C1062.29 712.811 1075.35 646.261 1095.18 652.741C1178.52 697.351 1126.07 659.241 1177.85 757.871C1180.93 763.378 1183.57 769.116 1185.76 775.031C1190.91 790.181 1246.96 799.601 1257.12 787.031C1263.71 787.031 1244.92 743.671 1257.88 753.671C1258.71 753.981 1275.56 778.671 1291.35 785.491L1290.95 785.411C1292.8 785.901 1291.09 785.491 1295.24 786.201C1355.5 802.061 1337.99 770.411 1323.92 732.701Z" fill="#EFF0EB"/>
<path d="M970.762 432.491C969.039 432.607 967.359 433.084 965.832 433.891C962.922 435.821 962.742 440.231 963.102 441.491C964.012 444.761 968.052 438.121 969.872 437.361C974.752 435.361 974.542 439.461 974.732 436.561C974.972 433.081 973.382 432.271 970.762 432.491Z" fill="#959293"/>
<path d="M974.502 437.981C974.092 441.441 971.312 442.571 966.642 441.981C966.473 441.964 966.308 441.913 966.159 441.831C966.01 441.75 965.878 441.639 965.772 441.506C965.666 441.373 965.587 441.22 965.541 441.056C965.494 440.892 965.481 440.72 965.502 440.551C965.712 439.551 965.862 434.921 971.082 434.921C972.172 434.941 974.762 435.851 974.502 437.981Z" fill="#1D1D22"/>
<path d="M1005.8 414.701C1005.52 411.101 981.342 413.761 991.052 425.921C996.122 433.271 1009.39 434.641 1005.8 414.701Z" fill="#C4AC88"/>
<path d="M930.872 433.871C932.713 433.554 934.598 433.599 936.422 434.001C939.952 435.151 942.702 438.701 941.062 440.711C938.892 443.381 938.272 439.101 934.572 438.291C931.102 437.541 930.932 443.111 927.572 438.831C925.452 436.081 928.052 434.321 930.872 433.871Z" fill="#959293"/>
<path d="M930.582 441.691C932.912 445.391 944.362 443.931 936.452 437.241C933.122 434.431 927.882 437.411 930.582 441.691Z" fill="#1D1D22"/>
<path d="M928.272 415.991C925.972 420.231 922.672 423.711 919.032 423.661C913.032 423.591 909.272 410.031 911.092 407.841C914.812 403.351 930.752 411.411 928.272 415.991Z" fill="#C4AC88"/>
<path d="M962.652 480.151C963.952 487.151 948.562 492.091 940.532 487.451C938.814 486.41 937.498 484.821 936.794 482.939C936.09 481.058 936.04 478.995 936.652 477.081C940.462 464.581 958.072 418.261 962.402 478.081C962.412 478.771 962.542 479.461 962.652 480.151Z" fill="#959293"/>
<path d="M942.452 483.741C919.102 467.501 979.832 468.911 951.042 485.411C948.652 486.771 946.462 486.531 942.452 483.741Z" fill="#1D1D22"/>
</svg>
