<svg width="1440" height="1024" viewBox="0 0 1440 1024" fill="none" xmlns="http://www.w3.org/2000/svg">
<g clip-path="url(#clip0)">
<g clip-path="url(#clip1)">
<path d="M1440 0H-2V296H1440V0Z" fill="#F37E84"/>
<path d="M134.02 726.72C287.014 726.72 411.04 602.694 411.04 449.7C411.04 296.706 287.014 172.68 134.02 172.68C-18.9739 172.68 -143 296.706 -143 449.7C-143 602.694 -18.9739 726.72 134.02 726.72Z" fill="#F6966E"/>
<path d="M1440 230H-2V526H1440V230Z" fill="#F6966E"/>
<path d="M134.02 587.24C204.458 587.24 261.56 530.138 261.56 459.7C261.56 389.262 204.458 332.16 134.02 332.16C63.5816 332.16 6.47998 389.262 6.47998 459.7C6.47998 530.138 63.5816 587.24 134.02 587.24Z" fill="#FED555"/>
<path d="M1440 390H-2V686H1440V390Z" fill="#FED555"/>
<path d="M134.02 549.4C178.037 549.4 213.72 513.717 213.72 469.7C213.72 425.683 178.037 390 134.02 390C90.0027 390 54.3198 425.683 54.3198 469.7C54.3198 513.717 90.0027 549.4 134.02 549.4Z" fill="#F8F16F"/>
<path d="M1440 470H-2V766H1440V470Z" fill="#F8F16F"/>
<path d="M1440 510H-2V1024H1440V510Z" fill="#173657"/>
</g>
<path d="M560.333 979.501L695.405 970.57L905.227 900.247L846.852 889.873L539.29 932.506L230.788 881.412L245.579 939.754L560.333 979.501Z" fill="#89AFE0"/>
<path d="M1483.78 897.623L1271.87 855.537L873.143 807.098L910.201 845.151L1287.44 891.862L1349.75 904.816L1054.29 909.976L816.232 1007.79L1465.62 1002.57L1464.47 902.816L1483.78 897.623Z" fill="#89AFE0"/>
<path d="M816.232 1007.79L800.49 1089.93L1295.22 1109.82L1524.43 1056.2L1465.61 967.4L1296.96 1003.92L816.232 1007.79Z" fill="#6190C9"/>
<path d="M816.232 1007.79L698.433 1056.2V1127.12L800.49 1089.93L816.232 1007.79Z" fill="#3A5A85"/>
<path d="M1396.13 897.623L910.201 845.151L891.595 899.361L905.227 900.247L695.405 970.57L560.333 979.501V1047.55L567.537 1134.61L698.433 1127.12V1056.2L1054.29 909.976H1297.56L1396.13 897.623Z" fill="#6190C9"/>
<path d="M1296.96 1003.92L1295.22 1109.82L1465.62 1047.75V967.4L1296.96 1003.92Z" fill="#3A5A85"/>
<path d="M841.79 892.945L891.595 899.361L910.2 845.151L873.142 807.098L841.79 892.945Z" fill="#B2CAEE"/>
<path d="M1396.56 1072.9L1475.16 981.797L1587 1117.83L1480.9 1185.3L1396.56 1072.9Z" fill="#B2CAEE"/>
<path d="M560.333 979.501V1047.59C560.333 1047.59 212.827 1004.17 212.827 1002.5C212.827 1000.83 245.622 939.798 245.622 939.798L560.333 979.501Z" fill="#6190C9"/>
<path d="M212.827 1002.46L560.333 1047.55L503.751 1225.55H-86L116.443 949.243L212.827 1002.46Z" fill="#89AFE0"/>
<path d="M230.788 881.412L171.331 979.501L212.827 1002.46L245.578 939.754L230.788 881.412Z" fill="#B2CAEE"/>
<path d="M539.29 932.506L703.177 909.79L707.222 874.995L567.537 888.955L539.29 932.506Z" fill="#6190C9"/>
<path d="M452.285 918.098L539.29 932.506L567.537 888.955L489.332 878.537L452.285 918.098Z" fill="#B2CAEE"/>
<path d="M707.221 874.995L582.743 842.812L489.332 878.537L567.537 888.955L707.221 874.995Z" fill="#89AFE0"/>
<path d="M870.061 510.733L849.993 444.656L811.091 430.425L773.949 427.294L733.202 444.74L659.696 444.656L627.089 434.655L605.345 448.548L564.226 434.655L504.443 427.294L490.433 439.799L450.262 435.4L436.708 466.823L428.552 469.005L415.201 510.733" fill="#6190C9"/>
<path d="M490.433 439.799L463.494 510.683H481.701L490.433 439.799Z" fill="#B2CAEE"/>
<path d="M421.14 510.733L428.552 469.005L415.201 510.733H421.14Z" fill="#B2CAEE"/>
<path d="M436.708 466.823L431.699 510.683H427.452L436.708 466.823Z" fill="#B2CAEE"/>
<path d="M564.227 434.655L572.975 510.683H594.803L571.74 437.193L564.227 434.655Z" fill="#3A5A85"/>
<path d="M626.04 510.683L627.089 434.655L619.66 463.083L607.223 510.683H626.04Z" fill="#B2CAEE"/>
<path d="M641.895 510.683L627.089 434.655L626.04 510.683H641.895Z" fill="#3A5A85"/>
<path d="M861.077 510.733L849.993 444.656L875.341 510.733H861.077Z" fill="#3A5A85"/>
<path d="M811.091 430.425L837.539 510.683H828.063L811.091 430.425Z" fill="#3A5A85"/>
<path d="M773.948 427.294L765.521 510.683H752.898L773.948 427.294Z" fill="#B2CAEE"/>
<path d="M679.646 510.683L659.696 444.656L670.948 510.683H679.646Z" fill="#3A5A85"/>
<path d="M733.203 444.74L725.165 510.683H730.698L733.203 444.74Z" fill="#B2CAEE"/>
<path d="M988.51 449.817L1015.58 439.664" stroke="white" stroke-width="0.5" stroke-miterlimit="10"/>
<path d="M1103.57 476.891L1111.85 486.248" stroke="white" stroke-width="0.25" stroke-miterlimit="10"/>
<path d="M978.357 305.986C978.357 305.986 947.899 395.669 936.054 444.74L981.742 446.432C973.281 375.363 978.357 305.986 978.357 305.986Z" fill="#173657"/>
<path d="M981.742 311.062C981.742 311.062 1012.2 390.592 1015.58 439.664C1015.58 439.664 1048.97 448.768 1059.58 453.201C1071.1 458.023 1103.57 476.891 1103.57 476.891C1103.57 476.891 990.202 316.139 981.742 311.062Z" fill="#89AFE0"/>
<path d="M988.73 453.201L981.742 305.986H978.357L985.718 453.201H988.73Z" fill="white"/>
<path d="M1108.65 487.043C1089.33 496.57 976.665 512.425 924.361 492.611L933.448 473.236L943.093 473.1L949.591 453.201H995.278C1005.43 453.201 1004.91 465.181 1004.91 465.181C1004.91 465.181 1011.88 464.369 1037.26 466.061C1094.79 469.445 1094.88 482.17 1108.65 487.043Z" fill="#B2CAEE"/>
<path d="M912.364 510.733L1116.93 511.038C1116.93 511.038 1139.11 493.812 1142.49 487.043C1145.88 480.275 1051.12 493.812 998.663 493.812C946.207 493.812 907.288 492.12 907.288 492.12L912.364 510.733Z" fill="#161A1D"/>
<path d="M936.054 444.74L986.818 446.432V448.125L936.054 446.432V444.74Z" fill="white"/>
</g>
<defs>
<clipPath id="clip0">
<rect width="1440" height="1024" fill="white"/>
</clipPath>
<clipPath id="clip1">
<rect width="1440" height="1024" fill="white"/>
</clipPath>
</defs>
</svg>
