<svg width="1440" height="105" viewBox="0 0 1440 105" fill="none" xmlns="http://www.w3.org/2000/svg">
<g clip-path="url(#clip0)">
<path d="M481.959 187.249L628.661 177.549L856.551 101.17L793.15 89.9022L459.103 136.207L124.036 80.7126L140.1 144.079L481.959 187.249Z" fill="#89AFE0"/>
<path d="M1484.93 98.3202L1254.77 52.6092L821.704 0L861.953 41.3299L1271.68 92.0631L1339.35 106.133L1018.45 111.737L759.893 217.976L1465.2 212.301L1463.95 103.96L1484.93 98.3202Z" fill="#89AFE0"/>
<path d="M1389.73 98.3201L861.954 41.3298L841.746 100.208L856.551 101.17L628.661 177.549L481.959 187.249V261.158L489.783 355.715L631.95 347.582V270.55L1018.45 111.737H1282.67L1389.73 98.3201Z" fill="#6190C9"/>
<path d="M787.652 93.2385L841.746 100.208L861.953 41.3299L821.704 0L787.652 93.2385Z" fill="#B2CAEE"/>
<path d="M124.036 80.7126L59.4587 187.249L104.529 212.182L140.1 144.079L124.036 80.7126Z" fill="#B2CAEE"/>
<path d="M459.103 136.207L637.103 111.535L641.496 73.7431L489.783 88.9049L459.103 136.207Z" fill="#6190C9"/>
<path d="M364.606 120.558L459.103 136.207L489.783 88.9049L404.844 77.5899L364.606 120.558Z" fill="#B2CAEE"/>
<path d="M641.496 73.7431L506.298 38.789L404.844 77.5899L489.783 88.9049L641.496 73.7431Z" fill="#89AFE0"/>
</g>
<defs>
<clipPath id="clip0">
<rect width="1440" height="105" fill="white"/>
</clipPath>
</defs>
</svg>
