<svg width="1440" height="1024" viewBox="0 0 1440 1024" fill="none" xmlns="http://www.w3.org/2000/svg">
<g clip-path="url(#clip0)">
<path d="M1440 0H-2V296H1440V0Z" fill="#F37E84"/>
<path d="M134.02 726.72C287.014 726.72 411.04 602.694 411.04 449.7C411.04 296.706 287.014 172.68 134.02 172.68C-18.9739 172.68 -143 296.706 -143 449.7C-143 602.694 -18.9739 726.72 134.02 726.72Z" fill="#F6966E"/>
<path d="M1440 230H-2V526H1440V230Z" fill="#F6966E"/>
<path d="M134.02 587.24C204.458 587.24 261.56 530.138 261.56 459.7C261.56 389.262 204.458 332.16 134.02 332.16C63.5816 332.16 6.47998 389.262 6.47998 459.7C6.47998 530.138 63.5816 587.24 134.02 587.24Z" fill="#FED555"/>
<path d="M1440 390H-2V686H1440V390Z" fill="#FED555"/>
<path d="M134.02 549.4C178.037 549.4 213.72 513.717 213.72 469.7C213.72 425.683 178.037 390 134.02 390C90.003 390 54.3201 425.683 54.3201 469.7C54.3201 513.717 90.003 549.4 134.02 549.4Z" fill="#F8F16F"/>
<path d="M1440 470H-2V766H1440V470Z" fill="#F8F16F"/>
<path d="M1440 510H-2V1024H1440V510Z" fill="#173657"/>
</g>
<defs>
<clipPath id="clip0">
<rect width="1440" height="1024" fill="white"/>
</clipPath>
</defs>
</svg>
